<?xml version="1.0" encoding="iso-8859-1"?>
<!-- Uploaded to: SVG Repo, www.svgrepo.com, Transformed by: SVG Repo Tools -->
<svg height="800px" width="800px" version="1.1" id="Layer_1" xmlns="http://www.w3.org/2000/svg" xmlns:xlink="http://www.w3.org/1999/xlink" 
	 viewBox="0 0 512 512" xml:space="preserve">
<g>
	<g>
		<path style="fill:#6581C9;" d="M10.816,368.821l24.497-55.111l24.7,55.578c6.903,15.537-4.467,33.033-21.469,33.033h-5.959
			C15.345,402.322,3.816,384.578,10.816,368.821"/>
		<path style="fill:#6581C9;" d="M512,224.766L256,349.024L0,224.766l256-140.57L512,224.766z"/>
	</g>
	<g>
		<path style="fill:#445793;" d="M35.31,339.529c-4.882,0-8.828-3.946-8.828-8.828v-88.276c0-4.467,3.337-8.236,7.777-8.766
			l220.69-26.483c4.89-0.556,9.234,2.887,9.816,7.715c0.583,4.846-2.869,9.234-7.715,9.816L44.138,250.255v80.446
			C44.138,335.583,40.192,339.529,35.31,339.529"/>
		<path style="fill:#445793;" d="M256,349.02L97.103,271.893v75.167c0,19.306,12.262,36.952,29.528,45.586l17.496,8.748
			c70.426,35.213,153.318,35.213,223.744,0l17.496-8.748c17.267-8.633,29.528-26.28,29.528-45.586v-75.167L256,349.02z"/>
		<path style="fill:#445793;" d="M291.31,216.606c0,19.5-15.81,35.31-35.31,35.31s-35.31-15.81-35.31-35.31s15.81-35.31,35.31-35.31
			S291.31,197.106,291.31,216.606"/>
	</g>
</g>
<g>
</g>
<g>
</g>
<g>
</g>
<g>
</g>
<g>
</g>
<g>
</g>
<g>
</g>
<g>
</g>
<g>
</g>
<g>
</g>
<g>
</g>
<g>
</g>
<g>
</g>
<g>
</g>
<g>
</g>
</svg>